<svg xmlns="http://www.w3.org/2000/svg" xmlns:xlink="http://www.w3.org/1999/xlink" width="1080" zoomAndPan="magnify" viewBox="0 0 810 809.999993" height="1080" preserveAspectRatio="xMidYMid meet" version="1.0"><defs><g/><clipPath id="65f9c6b527"><path d="M 81 81 L 739.832031 81 L 739.832031 739.832031 L 81 739.832031 Z M 81 81 " clip-rule="nonzero"/></clipPath><clipPath id="f17b098e28"><path d="M 156 81 L 664.832031 81 C 706.253906 81 739.832031 114.578125 739.832031 156 L 739.832031 664.832031 C 739.832031 706.253906 706.253906 739.832031 664.832031 739.832031 L 156 739.832031 C 114.578125 739.832031 81 706.253906 81 664.832031 L 81 156 C 81 114.578125 114.578125 81 156 81 Z M 156 81 " clip-rule="nonzero"/></clipPath><clipPath id="c5ad6f3984"><path d="M 0 0 L 658.832031 0 L 658.832031 658.832031 L 0 658.832031 Z M 0 0 " clip-rule="nonzero"/></clipPath><clipPath id="f232c1ec14"><path d="M 75 0 L 583.832031 0 C 625.253906 0 658.832031 33.578125 658.832031 75 L 658.832031 583.832031 C 658.832031 625.253906 625.253906 658.832031 583.832031 658.832031 L 75 658.832031 C 33.578125 658.832031 0 625.253906 0 583.832031 L 0 75 C 0 33.578125 33.578125 0 75 0 Z M 75 0 " clip-rule="nonzero"/></clipPath><linearGradient x1="0" gradientTransform="matrix(2.573563, 0, 0, 2.573563, 0, 0)" y1="128" x2="255.999999" gradientUnits="userSpaceOnUse" y2="128" id="7143a48d0a"><stop stop-opacity="1" stop-color="rgb(1.568604%, 46.269226%, 100%)" offset="0"/><stop stop-opacity="1" stop-color="rgb(3.126526%, 67.669678%, 92.607117%)" offset="1"/></linearGradient><clipPath id="12edc10c8a"><path d="M 484.613281 150.027344 L 684.863281 150.027344 L 684.863281 468.777344 L 484.613281 468.777344 Z M 484.613281 150.027344 " clip-rule="nonzero"/></clipPath></defs><g clip-path="url(#65f9c6b527)"><g clip-path="url(#f17b098e28)"><g transform="matrix(1, 0, 0, 1, 81, 81)"><g clip-path="url(#c5ad6f3984)"><g clip-path="url(#f232c1ec14)"><path fill="url(#7143a48d0a)" d="M 0 0 L 0 658.832031 L 658.832031 658.832031 L 658.832031 0 Z M 0 0 " fill-rule="nonzero"/></g></g></g></g></g><g clip-path="url(#12edc10c8a)"><path fill="#ffffff" d="M 558.269531 150.429688 C 557.25 150.734375 556.332031 151.449219 555.875 152.3125 C 555.210938 153.636719 537.941406 194.902344 522.304688 232.648438 C 518.226562 242.429688 508.089844 266.730469 499.835938 286.597656 C 490.515625 308.960938 484.757812 323.328125 484.757812 324.34375 C 484.757812 327.554688 482.363281 327.402344 529.382812 327.65625 L 572.277344 327.910156 L 568.761719 334.535156 C 561.019531 348.847656 552.15625 365.761719 513.03125 440.238281 C 510.332031 445.4375 506.15625 453.230469 503.8125 457.609375 C 501.46875 461.941406 499.53125 465.914062 499.53125 466.371094 C 499.53125 466.832031 500.09375 467.59375 500.804688 468.054688 C 501.976562 468.816406 502.179688 468.816406 503.25 468.105469 C 505.035156 466.933594 682.976562 288.226562 683.738281 286.851562 C 684.859375 284.8125 684.605469 282.0625 683.128906 280.332031 L 681.804688 278.753906 L 639.574219 278.753906 C 616.34375 278.753906 597.339844 278.648438 597.339844 278.546875 C 597.339844 278.140625 648.082031 197.347656 665.65625 169.683594 C 671.460938 160.566406 675.285156 154.046875 675.285156 153.332031 C 675.285156 152.617188 674.824219 151.652344 674.214844 151.089844 C 673.195312 150.171875 671.410156 150.121094 616.496094 150.019531 C 582.363281 149.96875 559.238281 150.121094 558.269531 150.429688 Z M 558.269531 150.429688" fill-opacity="1" fill-rule="nonzero"/></g><path fill="#ffffff" fill-opacity="1" d="M 307.734126 518.683557 L 307.734126 480.464807 L 185.390376 435.292932 L 185.390376 471.527932 L 264.562876 499.574807 L 185.390376 527.605432 L 185.390376 563.840432 Z" transform="translate(0, 0)"/><path fill="#ffffff" fill-opacity="1" d="M 301.14535 553.365711 L 508.84847 553.365711 L 508.84847 596.568836 L 301.14535 596.568836 Z" transform="translate(0, 0)"/></svg>
